<?xml version="1.0" encoding="UTF-8"?>
<svg xmlns="http://www.w3.org/2000/svg" xmlns:xlink="http://www.w3.org/1999/xlink" width="px" height="150px" viewBox="0 0 225 150" version="1.1">
<g id="surface1">
<path style=" stroke:none;fill-rule:nonzero;fill:rgb(0%,0%,0%);fill-opacity:1;" d="M 44.390625 0.515625 C 39.984375 1.546875 35.390625 4.875 32.90625 8.8125 C 29.859375 13.546875 29.953125 11.625 30.09375 61.21875 L 30.234375 106.171875 L 31.546875 108.84375 C 33.5625 112.96875 36.5625 115.96875 40.6875 117.984375 L 44.25 119.765625 L 110.578125 119.90625 C 158.953125 120 177.703125 119.90625 179.765625 119.53125 C 183.515625 118.78125 185.765625 117.5625 189 114.46875 C 192.1875 111.46875 193.828125 108.328125 194.53125 104.0625 C 195.1875 99.890625 195.1875 20.0625 194.484375 15.984375 C 194.25 14.34375 193.5 11.859375 192.84375 10.5 C 191.296875 7.171875 186.515625 2.765625 182.953125 1.3125 L 180.234375 0.234375 L 113.203125 0.140625 C 75.1875 0.140625 45.421875 0.28125 44.390625 0.515625 Z M 178.453125 16.125 L 179.765625 17.25 L 179.765625 102.75 L 177.140625 105 L 47.296875 105 L 46.171875 103.828125 L 45 102.703125 L 45 60.09375 C 45 15.140625 44.90625 16.734375 47.109375 15.5625 C 47.765625 15.1875 66.796875 15.046875 112.59375 15 L 177.140625 15 Z M 178.453125 16.125 "/>
<path style=" stroke:none;fill-rule:nonzero;fill:rgb(0%,0%,0%);fill-opacity:1;" d="M 0.09375 134.484375 L 0.234375 141.46875 L 1.6875 143.296875 C 3.421875 145.453125 6.984375 147.65625 10.640625 148.875 C 13.265625 149.71875 16.3125 149.765625 112.03125 149.765625 C 206.953125 149.765625 210.84375 149.71875 213.890625 148.875 C 217.875 147.796875 222.140625 145.03125 223.640625 142.6875 C 224.671875 141 224.765625 140.25 224.90625 134.15625 L 225.09375 127.5 L -0.046875 127.5 Z M 123.28125 135.703125 C 123.75 136.265625 123.75 136.6875 123.375 137.578125 L 122.8125 138.75 L 112.78125 138.75 C 107.25 138.75 102.421875 138.609375 102 138.46875 C 101.25 138.1875 100.96875 135.9375 101.578125 135.328125 C 101.71875 135.140625 106.546875 135 112.265625 135 C 121.078125 135 122.8125 135.09375 123.28125 135.703125 Z M 123.28125 135.703125 "/>
</g>
</svg>
