<?xml version="1.0" encoding="UTF-8"?>
<svg xmlns="http://www.w3.org/2000/svg" xmlns:xlink="http://www.w3.org/1999/xlink" width="px" height="150px" viewBox="0 0 253 150" version="1.1">
<g id="surface1">
<path style=" stroke:none;fill-rule:nonzero;fill:rgb(0%,0%,0%);fill-opacity:1;" d="M 24.710938 21.359375 C 24.480469 21.429688 24.015625 21.636719 23.714844 21.847656 C 22.4375 22.6875 22.507812 20.101562 22.507812 64.285156 C 22.507812 107.839844 22.460938 105.769531 23.574219 106.699219 C 23.921875 106.980469 31.113281 107.050781 73.875 107.144531 L 123.785156 107.257812 L 123.902344 110.589844 C 124.015625 113.757812 124.039062 113.96875 124.574219 114.386719 C 125.109375 114.828125 126.246094 114.828125 174.527344 114.828125 L 223.925781 114.828125 L 224.484375 114.246094 L 225.0625 113.6875 L 225.0625 50.566406 L 224.507812 49.914062 L 223.949219 49.261719 L 186.105469 49.191406 L 148.265625 49.144531 L 148.265625 36.3125 C 148.265625 22.359375 148.289062 22.664062 146.941406 21.753906 C 146.316406 21.3125 144.808594 21.3125 85.734375 21.289062 C 52.4375 21.265625 24.964844 21.289062 24.710938 21.359375 Z M 142.859375 26.367188 L 143.390625 26.855469 L 143.390625 49.121094 L 134.226562 49.191406 L 125.085938 49.261719 L 124.015625 50.332031 L 123.902344 74.136719 L 123.785156 97.941406 L 76.800781 98.011719 C 50.953125 98.035156 29.46875 98.011719 29.050781 97.941406 C 28.632812 97.871094 28.074219 97.59375 27.820312 97.335938 C 27.378906 96.894531 27.378906 96.242188 27.378906 61.839844 L 27.378906 26.808594 L 27.890625 26.320312 L 28.398438 25.855469 L 142.324219 25.855469 Z M 220.886719 54.96875 C 221.351562 55.433594 221.351562 55.738281 221.351562 82.035156 C 221.351562 96.683594 221.257812 108.773438 221.167969 108.914062 C 220.65625 109.703125 220.515625 109.703125 174.484375 109.703125 C 128.449219 109.703125 128.308594 109.703125 127.800781 108.914062 C 127.707031 108.773438 127.613281 96.683594 127.613281 82.035156 C 127.613281 55.738281 127.613281 55.433594 128.078125 54.96875 C 128.542969 54.503906 128.84375 54.503906 174.484375 54.503906 C 220.121094 54.503906 220.421875 54.503906 220.886719 54.96875 Z M 220.886719 54.96875 "/>
<path style=" stroke:none;fill-rule:nonzero;fill:rgb(0%,0%,0%);fill-opacity:1;" d="M 73.25 111.730469 C 72.972656 119.089844 71.742188 121.933594 67.773438 124.378906 C 67.125 124.796875 66.589844 125.171875 66.589844 125.21875 C 66.589844 125.265625 75.175781 125.3125 85.664062 125.3125 L 104.757812 125.3125 L 103.203125 124.261719 C 99.261719 121.605469 98.167969 119.046875 97.960938 111.847656 L 97.867188 108.074219 L 73.390625 108.074219 Z M 73.25 111.730469 "/>
<path style=" stroke:none;fill-rule:nonzero;fill:rgb(0%,0%,0%);fill-opacity:1;" d="M 107.195312 119.8125 C 107.195312 122.050781 108.402344 124.03125 110.328125 124.960938 L 111.582031 125.542969 L 236.78125 125.542969 L 237.964844 124.984375 C 239.984375 124.054688 241.074219 122.1875 241.074219 119.742188 L 241.074219 118.789062 L 187.011719 118.789062 L 187.011719 119.253906 C 187.011719 119.535156 186.757812 120 186.433594 120.304688 L 185.875 120.886719 L 163.089844 120.886719 L 162.535156 120.304688 C 162.207031 120 161.953125 119.535156 161.953125 119.253906 L 161.953125 118.789062 L 107.195312 118.789062 Z M 107.195312 119.8125 "/>
</g>
</svg>
